# xmcd CD database file
#
# Track frame offsets:
#	150
#	11902
#	21756
#	32878
#	52317
#	61541
#	71740
#	82854
#	92686
#	103943
#	114165
#	129967
#	140369
#	152608
#	173390
#
# Disc length: 2429 seconds
#
# Revision: 0
# Processed by: cddbd v1.5.2PL0 Copyright (c) Steve Scherf et al.
# Submitted via: CDex 2.14
#
DISCID=b8097b0f
DTITLE=Andy Salvanos - Solar Cycles
DYEAR=2018
DGENRE=New Age
TTITLE0=Andy Salvanos - Obscure movements
TTITLE1=Andy Salvanos - Little ramble
TTITLE2=Andy Salvanos - Nightcliff
TTITLE3=Andy Salvanos - Orbit
TTITLE4=Andy Salvanos - Memoir
TTITLE5=Andy Salvanos - Mandelblomma
TTITLE6=Andy Salvanos - The barren land
TTITLE7=Andy Salvanos - Pop song
TTITLE8=Andy Salvanos - Mosaik
TTITLE9=Andy Salvanos - Martinez
TTITLE10=Andy Salvanos - In setting sunlight
TTITLE11=Andy Salvanos - The hermit
TTITLE12=Andy Salvanos - A new beginning
TTITLE13=Andy Salvanos - Solar cycles
TTITLE14=Andy Salvanos - Memoir (Ambient Remix)
EXTD=YEAR: 2018
EXTT0=
EXTT1=
EXTT2=
EXTT3=
EXTT4=
EXTT5=
EXTT6=
EXTT7=
EXTT8=
EXTT9=
EXTT10=
EXTT11=
EXTT12=
EXTT13=
EXTT14=
PLAYORDER=
